<svg width="192" height="35" viewBox="0 0 192 35" fill="none" xmlns="http://www.w3.org/2000/svg">
<path d="M0.528 14.296H4.08V6.208H10.128V14.296H14.784V19.36H10.128V26.488C10.128 27.432 10.28 28.168 10.584 28.696C10.888 29.208 11.368 29.464 12.024 29.464C12.52 29.464 12.928 29.368 13.248 29.176C13.568 28.968 13.76 28.824 13.824 28.744L15.984 33.112C15.888 33.208 15.576 33.376 15.048 33.616C14.536 33.856 13.872 34.072 13.056 34.264C12.256 34.472 11.352 34.576 10.344 34.576C8.536 34.576 7.04 34.056 5.856 33.016C4.672 31.96 4.08 30.328 4.08 28.12V19.36H0.528V14.296ZM34.5401 34V30.568C34.3961 30.92 34.0281 31.416 33.4361 32.056C32.8441 32.696 32.0441 33.28 31.0361 33.808C30.0441 34.32 28.8761 34.576 27.5321 34.576C25.6441 34.576 23.9721 34.128 22.5161 33.232C21.0601 32.32 19.9161 31.08 19.0841 29.512C18.2681 27.928 17.8601 26.144 17.8601 24.16C17.8601 22.176 18.2681 20.4 19.0841 18.832C19.9161 17.248 21.0601 16 22.5161 15.088C23.9721 14.176 25.6441 13.72 27.5321 13.72C28.8441 13.72 29.9801 13.944 30.9401 14.392C31.9161 14.824 32.7001 15.336 33.2921 15.928C33.9001 16.504 34.2921 17.024 34.4681 17.488V14.296H40.5161V34H34.5401ZM23.8361 24.16C23.8361 25.264 24.0841 26.24 24.5801 27.088C25.0761 27.92 25.7321 28.568 26.5481 29.032C27.3641 29.496 28.2521 29.728 29.2121 29.728C30.2201 29.728 31.1161 29.496 31.9001 29.032C32.6841 28.552 33.3001 27.896 33.7481 27.064C34.2121 26.216 34.4441 25.248 34.4441 24.16C34.4441 23.072 34.2121 22.112 33.7481 21.28C33.3001 20.432 32.6841 19.768 31.9001 19.288C31.1161 18.808 30.2201 18.568 29.2121 18.568C28.2521 18.568 27.3641 18.808 26.5481 19.288C25.7321 19.752 25.0761 20.408 24.5801 21.256C24.0841 22.088 23.8361 23.056 23.8361 24.16ZM53.8005 13.72C54.9845 13.72 56.0805 13.832 57.0885 14.056C58.0965 14.264 58.9445 14.504 59.6325 14.776C60.3365 15.048 60.8005 15.28 61.0245 15.472L58.9365 19.144C58.6165 18.888 58.0405 18.584 57.2085 18.232C56.3925 17.88 55.4805 17.704 54.4725 17.704C53.5605 17.704 52.7925 17.864 52.1685 18.184C51.5445 18.488 51.2325 18.952 51.2325 19.576C51.2325 20.2 51.5685 20.696 52.2405 21.064C52.9125 21.432 53.8485 21.752 55.0485 22.024C56.0565 22.232 57.0485 22.552 58.0245 22.984C59.0005 23.4 59.8085 24.008 60.4485 24.808C61.0885 25.592 61.4085 26.64 61.4085 27.952C61.4085 29.248 61.1285 30.328 60.5685 31.192C60.0245 32.04 59.2965 32.712 58.3845 33.208C57.4725 33.704 56.4725 34.056 55.3845 34.264C54.2965 34.472 53.2165 34.576 52.1445 34.576C50.7525 34.576 49.5285 34.44 48.4725 34.168C47.4165 33.912 46.5445 33.616 45.8565 33.28C45.1845 32.928 44.7045 32.632 44.4165 32.392L46.5045 28.312C46.9205 28.68 47.6005 29.088 48.5445 29.536C49.5045 29.968 50.5365 30.184 51.6405 30.184C52.7925 30.184 53.6965 29.984 54.3525 29.584C55.0245 29.184 55.3605 28.648 55.3605 27.976C55.3605 27.48 55.2005 27.08 54.8805 26.776C54.5605 26.456 54.1205 26.192 53.5605 25.984C53.0005 25.776 52.3445 25.592 51.5925 25.432C50.9045 25.288 50.2005 25.08 49.4805 24.808C48.7605 24.52 48.0885 24.144 47.4645 23.68C46.8405 23.216 46.3365 22.64 45.9525 21.952C45.5685 21.248 45.3765 20.408 45.3765 19.432C45.3765 18.184 45.7765 17.144 46.5765 16.312C47.3765 15.464 48.4165 14.824 49.6965 14.392C50.9765 13.944 52.3445 13.72 53.8005 13.72ZM78.5888 14.296H85.5968L75.9728 23.704L86.4608 34H79.2848L71.1008 25.768V34H65.0048V0.975999H71.1008V21.52L78.5888 14.296ZM88.6901 34V0.975999H94.7861V17.488C94.9141 17.024 95.2901 16.496 95.9141 15.904C96.5381 15.312 97.3621 14.8 98.3861 14.368C99.4261 13.936 100.602 13.72 101.914 13.72C103.802 13.72 105.45 14.176 106.858 15.088C108.282 16 109.386 17.248 110.17 18.832C110.97 20.4 111.37 22.176 111.37 24.16C111.37 26.144 110.97 27.928 110.17 29.512C109.386 31.08 108.282 32.32 106.858 33.232C105.45 34.128 103.802 34.576 101.914 34.576C100.746 34.576 99.6581 34.36 98.6501 33.928C97.6581 33.496 96.8181 32.968 96.1301 32.344C95.4581 31.72 94.9861 31.128 94.7141 30.568V34H88.6901ZM105.37 24.16C105.37 23.056 105.138 22.088 104.674 21.256C104.21 20.408 103.586 19.752 102.802 19.288C102.018 18.808 101.146 18.568 100.186 18.568C99.1781 18.568 98.2661 18.808 97.4501 19.288C96.6341 19.768 95.9861 20.432 95.5061 21.28C95.0261 22.112 94.7861 23.072 94.7861 24.16C94.7861 25.248 95.0261 26.216 95.5061 27.064C95.9861 27.896 96.6341 28.552 97.4501 29.032C98.2661 29.496 99.1781 29.728 100.186 29.728C101.146 29.728 102.018 29.496 102.802 29.032C103.586 28.568 104.21 27.92 104.674 27.088C105.138 26.24 105.37 25.264 105.37 24.16ZM119.478 25.504C119.526 26.4 119.766 27.2 120.198 27.904C120.63 28.608 121.254 29.16 122.07 29.56C122.902 29.96 123.894 30.16 125.046 30.16C126.086 30.16 126.998 30.032 127.782 29.776C128.582 29.52 129.254 29.208 129.798 28.84C130.358 28.456 130.774 28.088 131.046 27.736L133.566 31.48C133.118 32.04 132.518 32.56 131.766 33.04C131.03 33.504 130.086 33.872 128.934 34.144C127.798 34.432 126.374 34.576 124.662 34.576C122.502 34.576 120.606 34.152 118.974 33.304C117.342 32.456 116.07 31.232 115.158 29.632C114.246 28.032 113.79 26.128 113.79 23.92C113.79 22 114.198 20.272 115.014 18.736C115.83 17.184 117.014 15.96 118.566 15.064C120.134 14.168 122.014 13.72 124.206 13.72C126.27 13.72 128.054 14.12 129.558 14.92C131.078 15.704 132.254 16.856 133.086 18.376C133.918 19.896 134.334 21.752 134.334 23.944C134.334 24.072 134.326 24.336 134.31 24.736C134.31 25.12 134.294 25.376 134.262 25.504H119.478ZM128.622 21.736C128.606 21.224 128.446 20.672 128.142 20.08C127.854 19.488 127.398 18.984 126.774 18.568C126.15 18.152 125.318 17.944 124.278 17.944C123.238 17.944 122.382 18.144 121.71 18.544C121.054 18.944 120.558 19.44 120.222 20.032C119.886 20.608 119.694 21.176 119.646 21.736H128.622ZM153.931 34V30.568C153.787 30.92 153.419 31.416 152.827 32.056C152.235 32.696 151.435 33.28 150.427 33.808C149.435 34.32 148.267 34.576 146.923 34.576C145.035 34.576 143.363 34.128 141.907 33.232C140.451 32.32 139.307 31.08 138.475 29.512C137.659 27.928 137.251 26.144 137.251 24.16C137.251 22.176 137.659 20.4 138.475 18.832C139.307 17.248 140.451 16 141.907 15.088C143.363 14.176 145.035 13.72 146.923 13.72C148.235 13.72 149.371 13.944 150.331 14.392C151.307 14.824 152.091 15.336 152.683 15.928C153.291 16.504 153.683 17.024 153.859 17.488V14.296H159.907V34H153.931ZM143.227 24.16C143.227 25.264 143.475 26.24 143.971 27.088C144.467 27.92 145.123 28.568 145.939 29.032C146.755 29.496 147.643 29.728 148.603 29.728C149.611 29.728 150.507 29.496 151.291 29.032C152.075 28.552 152.691 27.896 153.139 27.064C153.603 26.216 153.835 25.248 153.835 24.16C153.835 23.072 153.603 22.112 153.139 21.28C152.691 20.432 152.075 19.768 151.291 19.288C150.507 18.808 149.611 18.568 148.603 18.568C147.643 18.568 146.755 18.808 145.939 19.288C145.123 19.752 144.467 20.408 143.971 21.256C143.475 22.088 143.227 23.056 143.227 24.16ZM170.599 34H164.503V14.296H170.599V17.488H170.479C170.591 17.104 170.895 16.616 171.391 16.024C171.903 15.432 172.607 14.904 173.503 14.44C174.399 13.96 175.479 13.72 176.743 13.72C177.655 13.72 178.479 13.856 179.215 14.128C179.967 14.384 180.503 14.64 180.823 14.896L178.423 19.888C178.215 19.632 177.823 19.368 177.247 19.096C176.687 18.824 175.983 18.688 175.135 18.688C174.127 18.688 173.287 18.968 172.615 19.528C171.943 20.072 171.439 20.744 171.103 21.544C170.767 22.328 170.599 23.064 170.599 23.752V34ZM187.827 34.576C186.755 34.576 185.835 34.192 185.067 33.424C184.299 32.656 183.915 31.736 183.915 30.664C183.915 29.56 184.299 28.624 185.067 27.856C185.835 27.088 186.755 26.704 187.827 26.704C188.931 26.704 189.859 27.088 190.611 27.856C191.379 28.624 191.763 29.56 191.763 30.664C191.763 31.736 191.379 32.656 190.611 33.424C189.859 34.192 188.931 34.576 187.827 34.576Z" fill="#404145"/>
</svg>
